<svg width="18" height="18" viewBox="0 0 18 18" fill="none" xmlns="http://www.w3.org/2000/svg">
<path fill-rule="evenodd" clip-rule="evenodd" d="M10.189 1.59998H7.81239H7.81174C7.59677 1.60068 7.39081 1.68638 7.2388 1.83839C7.0868 1.99039 7.00109 2.19636 7.00039 2.41133V3.39998H4.50039H3.60039C3.48993 3.39998 3.40039 3.48952 3.40039 3.59998C3.40039 3.71043 3.48993 3.79998 3.60039 3.79998H4.30039V15.588L4.30039 15.5886C4.30109 15.8036 4.3868 16.0096 4.5388 16.1616C4.69081 16.3136 4.89677 16.3993 5.11174 16.4H5.11239H12.8884H12.889C13.104 16.3993 13.31 16.3136 13.462 16.1616C13.614 16.0096 13.6997 15.8036 13.7004 15.5886L13.7004 15.588V3.79998H14.4004C14.5108 3.79998 14.6004 3.71043 14.6004 3.59998C14.6004 3.48952 14.5108 3.39998 14.4004 3.39998H13.5004H11.0004L11.0004 2.41198L11.0004 2.41133C10.9997 2.19636 10.914 1.99039 10.762 1.83839C10.61 1.68638 10.404 1.60068 10.189 1.59998ZM10.6004 3.39998H7.40039V2.41233C7.40082 2.30311 7.4444 2.19847 7.52165 2.12123C7.59889 2.04399 7.70352 2.00041 7.81275 1.99998H10.188C10.2973 2.00041 10.4019 2.04399 10.4791 2.12123C10.5564 2.19847 10.6 2.30309 10.6004 2.41231V3.39998ZM4.70039 15.5876V3.79998H13.3004L13.3004 15.5873L13.3004 15.5875C13.3 15.6968 13.2564 15.8015 13.1791 15.8787C13.1019 15.956 12.9972 15.9996 12.888 16H12.8877H5.11304H5.11282C5.00357 15.9996 4.8989 15.956 4.82165 15.8787C4.7444 15.8015 4.70082 15.6968 4.70039 15.5876ZM9.20039 5.39998C9.20039 5.28952 9.11085 5.19998 9.00039 5.19998C8.88993 5.19998 8.80039 5.28952 8.80039 5.39998V14.4C8.80039 14.5104 8.88993 14.6 9.00039 14.6C9.11085 14.6 9.20039 14.5104 9.20039 14.4V5.39998ZM6.75039 5.19998C6.86085 5.19998 6.95039 5.28952 6.95039 5.39998V14.4C6.95039 14.5104 6.86085 14.6 6.75039 14.6C6.63993 14.6 6.55039 14.5104 6.55039 14.4V5.39998C6.55039 5.28952 6.63993 5.19998 6.75039 5.19998ZM11.4504 5.39998C11.4504 5.28952 11.3608 5.19998 11.2504 5.19998C11.1399 5.19998 11.0504 5.28952 11.0504 5.39998V14.4C11.0504 14.5104 11.1399 14.6 11.2504 14.6C11.3608 14.6 11.4504 14.5104 11.4504 14.4V5.39998Z" fill="#B00505"/>
</svg>
